<svg xmlns="http://www.w3.org/2000/svg" width="979" height="874" viewBox="0 0 979 874" fill="none">
  <path d="M869.936 497.608C811.961 491.026 754.921 516.529 706.735 549.318C658.561 582.116 615.798 622.703 565.736 652.555C495.886 694.214 408.989 713.21 331.682 687.639C254.376 662.068 192.248 585.35 198.527 504.233C203.07 445.404 240.248 394.379 280.816 351.568C321.383 308.757 367.339 269.793 397.017 218.83C426.695 167.867 436.709 99.7155 402.659 51.4693C369.172 4.0096 301.403 -9.92872 245.827 6.76729C190.252 23.4633 145.479 64.9444 109.392 110.346C57.3767 175.758 18.7461 252.95 5.1876 335.448C-8.37099 417.947 4.30375 505.828 47.2851 577.63C99.465 664.807 189.989 721.19 279.836 768.652C405.143 834.867 545.496 891.735 685.096 867.907C758.924 855.305 827.467 818.156 880.85 766.033C907.566 739.932 930.59 710.031 948.749 677.379C966.02 646.283 987.561 608.028 974.63 571.421C960.071 530.246 911.18 502.298 869.936 497.608Z" fill="url(#paint0_linear_blob)"/>
  <defs>
    <linearGradient id="paint0_linear_blob" x1="280.68" y1="799.088" x2="799.194" y2="-54.7402" gradientUnits="userSpaceOnUse">
      <stop stop-color="#1E1F33"/>
      <stop offset="1" stop-color="#0070DB"/>
    </linearGradient>
  </defs>
</svg>
