<svg xmlns="http://www.w3.org/2000/svg" width="150" height="150" viewBox="0 0 150 150" fill="none">
  <!-- Scattered blue dots pattern matching Figma design -->
  <!-- Row 1 - top -->
  <circle cx="30" cy="15" r="4" fill="#0070DB" fill-opacity="0.35"/>
  <circle cx="55" cy="10" r="3" fill="#0070DB" fill-opacity="0.3"/>
  <circle cx="80" cy="18" r="5" fill="#0070DB" fill-opacity="0.4"/>
  <circle cx="110" cy="12" r="3" fill="#0070DB" fill-opacity="0.35"/>
  <circle cx="135" cy="20" r="4" fill="#0070DB" fill-opacity="0.3"/>
  
  <!-- Row 2 -->
  <circle cx="20" cy="40" r="3" fill="#0070DB" fill-opacity="0.4"/>
  <circle cx="45" cy="35" r="5" fill="#0070DB" fill-opacity="0.5"/>
  <circle cx="75" cy="42" r="4" fill="#0070DB" fill-opacity="0.45"/>
  <circle cx="100" cy="38" r="6" fill="#0070DB" fill-opacity="0.55"/>
  <circle cx="130" cy="45" r="4" fill="#0070DB" fill-opacity="0.4"/>
  
  <!-- Row 3 -->
  <circle cx="35" cy="65" r="5" fill="#0070DB" fill-opacity="0.5"/>
  <circle cx="60" cy="60" r="4" fill="#0070DB" fill-opacity="0.55"/>
  <circle cx="90" cy="68" r="6" fill="#0070DB" fill-opacity="0.6"/>
  <circle cx="115" cy="62" r="5" fill="#0070DB" fill-opacity="0.5"/>
  <circle cx="140" cy="70" r="3" fill="#0070DB" fill-opacity="0.45"/>
  
  <!-- Row 4 -->
  <circle cx="25" cy="90" r="4" fill="#0070DB" fill-opacity="0.55"/>
  <circle cx="50" cy="85" r="6" fill="#0070DB" fill-opacity="0.65"/>
  <circle cx="78" cy="92" r="5" fill="#0070DB" fill-opacity="0.6"/>
  <circle cx="105" cy="88" r="7" fill="#0070DB" fill-opacity="0.7"/>
  <circle cx="135" cy="95" r="4" fill="#0070DB" fill-opacity="0.5"/>
  
  <!-- Row 5 -->
  <circle cx="40" cy="115" r="5" fill="#0070DB" fill-opacity="0.6"/>
  <circle cx="65" cy="110" r="6" fill="#0070DB" fill-opacity="0.7"/>
  <circle cx="95" cy="118" r="5" fill="#0070DB" fill-opacity="0.65"/>
  <circle cx="120" cy="112" r="7" fill="#0070DB" fill-opacity="0.75"/>
  <circle cx="145" cy="120" r="4" fill="#0070DB" fill-opacity="0.55"/>
  
  <!-- Row 6 - bottom -->
  <circle cx="30" cy="138" r="4" fill="#0070DB" fill-opacity="0.5"/>
  <circle cx="55" cy="135" r="6" fill="#0070DB" fill-opacity="0.65"/>
  <circle cx="85" cy="142" r="5" fill="#0070DB" fill-opacity="0.6"/>
  <circle cx="110" cy="138" r="7" fill="#0070DB" fill-opacity="0.8"/>
  <circle cx="140" cy="145" r="5" fill="#0070DB" fill-opacity="0.55"/>
</svg>
